<svg xmlns="http://www.w3.org/2000/svg" version="1.1" style="width:1em; height:1em; vertical-align:middle;" viewBox="0 0 16 16" class="comment-mail">
    <g fill="currentColor">
         <path d="M13.9661585 6.41 C14.8992992 7.14 15.45 8.03 15.45 9 C15.450459 9.89 14.98 10.72 14.17 11.42 L15.9373937 14.89 L11.9994031 12.71 C11.1771293 13.93 9.1 14.8 6.67 14.8 C5.53232152 14.8 4.47 14.61 3.58 14.28 L3.58314938 14.28 L0.600000024 15.93 L1.91489821 13.35 C1.31289726 12.83 0.96 12.21 0.96 11.55 C0.962083376 11.39 0.98 11.23 1.02 11.08 L1.02243693 11.08 C0.43409296 10.46 0.1 9.75 0.1 9 C0.100000001 8.02 0.66 7.13 1.6 6.4 L1.60063557 7.21 C1.60063557 7.49 1.82 7.71 2.1 7.71 L13.4661002 7.71 C13.7422748 7.71 13.97 7.49 13.97 7.21 L13.9661585 6.41 Z M1.74783186 11.7 C1.77305064 12.2 2.05 12.67 2.52 13.06 L1.71405027 14.79 L3.62777176 13.72 L3.62777176 13.72 C4.43359121 14.06 5.44 14.26 6.53 14.26 C8.20280852 14.26 9.67 13.79 10.53 13.08 C9.67446109 13.26 8.75 13.37 7.78 13.37 C5.33088476 13.37 3.15 12.72 1.75 11.7 L1.74783186 11.7 Z"/>
         <path d="M7.80000043 4.63 L2.48364258 0.2 L3.38195801 0.2 L7.80500007 3.84 L12.2280421 0.2 L13.1263576 0.2 L7.80999971 4.63 L7.8099997 4.64 L7.80500007 4.64 L7.80000043 4.64 L7.80000043 4.63 Z M2.54689341 -0 C2.30008094 -0 2.1 0.19 2.1 0.45 L2.0999999 6.8 C2.0999999 7.05 2.3 7.25 2.55 7.25 L13.0531064 7.25 C13.2999189 7.25 13.5 7.06 13.5 6.8 L13.4999999 0.45 C13.4999999 0.2 13.3 -0 13.05 -0 L2.54689341 -0 Z"/>
    </g>
</svg>