<?xml version="1.0" encoding="UTF-8" standalone="no"?>
<svg width="16px" height="16px" viewBox="0 0 16 16" version="1.1" xmlns="http://www.w3.org/2000/svg" xmlns:xlink="http://www.w3.org/1999/xlink" xmlns:sketch="http://www.bohemiancoding.com/sketch/ns">
    <!-- Generator: Sketch 3.1.1 (8761) - http://www.bohemiancoding.com/sketch -->
    <title>Artboard 1</title>
    <desc>Created with Sketch.</desc>
    <defs></defs>
    <g id="Page-1" stroke="none" stroke-width="1" fill="none" fill-rule="evenodd" sketch:type="MSPage">
        <g id="Artboard-1" sketch:type="MSArtboardGroup" fill="#4A4A4A">
            <path d="M13.9661585,6.41262223 C14.8992992,7.13636675 15.450459,8.02974893 15.450459,8.99643365 C15.450459,9.89080012 14.9786798,10.7224214 14.1691007,11.415006 L15.9373937,14.8927634 L11.9994031,12.7142628 C11.1771293,13.9339727 9.10080817,14.7997638 6.66936474,14.7997638 C5.53232152,14.7997638 4.47293941,14.6104254 3.58314938,14.2840966 L3.58314938,14.2840966 L0.600000024,15.934378 L1.91489821,13.3483263 C1.31289726,12.8333222 0.962083376,12.2149306 0.962083376,11.549882 C0.962083376,11.3887641 0.982673428,11.2303846 1.02243693,11.0755502 L1.02243693,11.0755502 C0.43409296,10.4572541 0.100000001,9.74906055 0.100000001,8.99643365 C0.100000001,8.02412157 0.657595441,7.12596794 1.60063557,6.4000001 L1.60063557,7.20936335 C1.60063557,7.48720189 1.81526237,7.71243453 2.10069391,7.71243453 L13.4661002,7.71243453 C13.7422748,7.71243453 13.9661585,7.49123677 13.9661585,7.20936335 L13.9661585,6.41262223 Z M1.74783186,11.7025306 C1.77305064,12.202839 2.05292704,12.6682085 2.51884574,13.0609698 L1.71405027,14.7927246 L3.62777176,13.7175478 L3.62777176,13.7175478 C4.43359121,14.0558949 5.44090849,14.2569046 6.53374306,14.2569046 C8.20280852,14.2569046 9.67239743,13.7880319 10.5293273,13.0771204 C9.67446109,13.264317 8.74588745,13.3669188 7.77522952,13.3669188 C5.33088476,13.3669188 3.15341781,12.7162686 1.74783186,11.7025306 L1.74783186,11.7025306 Z" id="Secondary-Bubble" sketch:type="MSShapeGroup"></path>
            <path d="M7.80000043,4.63348244 L2.48364258,0.200000003 L3.38195801,0.200000003 L7.80500007,3.83580711 L12.2280421,0.200000003 L13.1263576,0.200000003 L7.80999971,4.63348244 L7.8099997,4.64182116 L7.80500007,4.6376518 L7.80000043,4.64182116 L7.80000043,4.63348244 Z M2.54689341,-1.11022302e-16 C2.30008094,-1.11022302e-16 2.0999999,0.194041566 2.0999999,0.453804309 L2.0999999,6.80074115 C2.0999999,7.05137034 2.29786825,7.25454545 2.54689341,7.25454545 L13.0531064,7.25454545 C13.2999189,7.25454545 13.4999999,7.06050389 13.4999999,6.80074115 L13.4999999,0.453804309 C13.4999999,0.20317511 13.3021316,-1.11022302e-16 13.0531064,-1.11022302e-16 L2.54689341,-1.11022302e-16 Z" id="Envelope" sketch:type="MSShapeGroup"></path>
        </g>
    </g>
</svg>