<?xml version="1.0" encoding="UTF-8" standalone="no"?>
<svg width="16px" height="16px" viewBox="0 0 16 16" version="1.1" xmlns="http://www.w3.org/2000/svg" xmlns:xlink="http://www.w3.org/1999/xlink" xmlns:sketch="http://www.bohemiancoding.com/sketch/ns">
    <!-- Generator: Sketch 3.1.1 (8761) - http://www.bohemiancoding.com/sketch -->
    <title>Artboard 1</title>
    <desc>Created with Sketch.</desc>
    <defs></defs>
    <g id="Page-1" stroke="none" stroke-width="1" fill="none" fill-rule="evenodd" sketch:type="MSPage">
        <g id="Artboard-1" sketch:type="MSArtboardGroup" fill="#4A4A4A">
            <path d="M13.9661585,6.41262223 C14.8992992,7.13636675 15.450459,8.02974893 15.450459,8.99643365 C15.450459,9.89080012 14.9786798,10.7224214 14.1691007,11.415006 L15.9373937,14.8927634 L11.9256139,12.6734425 L11.9256139,12.6734425 C10.7290121,13.112294 9.30434069,13.3669188 7.77522952,13.3669188 C3.53631731,13.3669188 0.100000001,11.410186 0.100000001,8.99643365 C0.100000001,8.02412157 0.657595441,7.12596794 1.60063557,6.4000001 L1.60063557,7.20936335 C1.60063557,7.48720189 1.81526237,7.71243453 2.10069391,7.71243453 L13.4661002,7.71243453 C13.7422748,7.71243453 13.9661585,7.49123677 13.9661585,7.20936335 L13.9661585,6.41262223 Z" id="Secondary-Bubble" sketch:type="MSShapeGroup"></path>
            <path d="M7.80000043,4.63348244 L2.48364258,0.200000003 L3.38195801,0.200000003 L7.80500007,3.83580711 L12.2280421,0.200000003 L13.1263576,0.200000003 L7.80999971,4.63348244 L7.8099997,4.64182116 L7.80500007,4.6376518 L7.80000043,4.64182116 L7.80000043,4.63348244 Z M2.54689341,-1.11022302e-16 C2.30008094,-1.11022302e-16 2.0999999,0.194041566 2.0999999,0.453804309 L2.0999999,6.80074115 C2.0999999,7.05137034 2.29786825,7.25454545 2.54689341,7.25454545 L13.0531064,7.25454545 C13.2999189,7.25454545 13.4999999,7.06050389 13.4999999,6.80074115 L13.4999999,0.453804309 C13.4999999,0.20317511 13.3021316,-1.11022302e-16 13.0531064,-1.11022302e-16 L2.54689341,-1.11022302e-16 Z" id="Envelope" sketch:type="MSShapeGroup"></path>
        </g>
    </g>
</svg>