<?xml version="1.0" encoding="UTF-8" standalone="no"?>
<svg width="16px" height="16px" viewBox="0 0 16 16" version="1.1" xmlns="http://www.w3.org/2000/svg" xmlns:xlink="http://www.w3.org/1999/xlink" xmlns:sketch="http://www.bohemiancoding.com/sketch/ns">
    <!-- Generator: Sketch 3.1.1 (8761) - http://www.bohemiancoding.com/sketch -->
    <title>Comment Mail™</title>
    <desc>Created with Sketch.</desc>
    <defs></defs>
    <g id="Page-1" stroke="none" stroke-width="1" fill="none" fill-rule="evenodd" sketch:type="MSPage">
        <g id="Comment-Mail™" sketch:type="MSArtboardGroup">
            <path d="M14.1,5.63571636 C14.9517714,6.33967604 15.450459,7.19287046 15.450459,8.11238878 C15.450459,9.00675525 14.9786798,9.83837654 14.1691007,10.5309611 L15.9373937,14.0087185 L11.9256139,11.7893977 L11.9256139,11.7893977 C10.7290121,12.2282491 9.30434069,12.482874 7.77522952,12.482874 C3.53631731,12.482874 0.100000001,10.5261411 0.100000001,8.11238878 C0.100000001,7.04123575 0.776722924,6.06008476 1.89999998,5.30000019 L1.89999998,7.0658888 C1.89999998,7.30870143 2.09163284,7.50553995 2.34867325,7.50553995 L13.6513267,7.50553995 C13.8991221,7.50553995 14.1,7.31362877 14.1,7.0658888 L14.1,5.63571636 Z" id="Bubbles" fill="#4A4A4A" sketch:type="MSShapeGroup"></path>
            <rect id="Envelope" fill="#4A4A4A" sketch:type="MSShapeGroup" x="2.5999999" y="0" width="10.8" height="6.87272727" rx="0.44478507"></rect>
            <polygon id="Flap" fill="#D8D8D8" sketch:type="MSShapeGroup" transform="translate(8.000000, 2.600000) scale(1, -1) translate(-8.000000, -2.600000) " points="7.99999989 0.599999905 12.5 4.5999998 11.5625 4.5999998 7.99999989 2.41818168 4.43749976 4.5999998 3.5 4.5999999 "></polygon>
        </g>
    </g>
</svg>