<?xml version="1.0" encoding="UTF-8" standalone="no"?>
<svg width="16px" height="16px" viewBox="0 0 16 16" version="1.1" xmlns="http://www.w3.org/2000/svg" xmlns:xlink="http://www.w3.org/1999/xlink" xmlns:sketch="http://www.bohemiancoding.com/sketch/ns">
    <!-- Generator: Sketch 3.1.1 (8761) - http://www.bohemiancoding.com/sketch -->
    <title>Comment Mail™</title>
    <desc>Created with Sketch.</desc>
    <defs></defs>
    <g id="Page-1" stroke="none" stroke-width="1" fill="none" fill-rule="evenodd" sketch:type="MSPage">
        <g id="Comment-Mail™" sketch:type="MSArtboardGroup">
            <path d="M14.1,5.63571636 C14.9517714,6.33967604 15.450459,7.19287046 15.450459,8.11238878 C15.450459,9.00675525 14.9786798,9.83837654 14.1691007,10.5309611 L15.9373937,14.0087185 L12.3204301,12.0078104 C11.9296094,13.5858368 9.54844584,14.7997638 6.66936474,14.7997638 C5.53232152,14.7997638 4.47293941,14.6104254 3.58314938,14.2840966 L3.58314938,14.2840966 L0.600000024,15.934378 L1.91489821,13.3483263 C1.31289726,12.8333222 0.962083376,12.2149306 0.962083376,11.549882 C0.962083376,11.165606 1.07921023,10.7969075 1.29424428,10.4547307 L1.29424428,10.4547307 C0.538036753,9.77771086 0.100000001,8.97417858 0.100000001,8.11238878 C0.100000001,7.04123575 0.776722924,6.06008476 1.89999998,5.30000019 L1.89999998,7.0658888 C1.89999998,7.30870143 2.09163284,7.50553995 2.34867325,7.50553995 L13.6513267,7.50553995 C13.8991221,7.50553995 14.1,7.31362877 14.1,7.0658888 L14.1,5.63571636 Z M1.91455086,10.9345943 C1.80464172,11.1556337 1.74596704,11.3882813 1.74596704,11.6284523 C1.74596704,12.1628789 2.03649339,12.660053 2.53556999,13.0749705 L1.89355472,14.5590821 L3.60073421,13.7061116 L3.60073421,13.7061116 C4.4110062,14.0513606 5.42865146,14.2569046 6.53374306,14.2569046 C8.94591699,14.2569046 10.9414496,13.2775827 11.2731076,12.0036603 C10.2241563,12.3100096 9.03514487,12.482874 7.77522952,12.482874 C5.42553187,12.482874 3.3224447,11.8816356 1.91455086,10.9345943 L1.91455086,10.9345943 Z" id="Bubbles" fill="#4A4A4A" sketch:type="MSShapeGroup"></path>
            <rect id="Envelope" fill="#4A4A4A" sketch:type="MSShapeGroup" x="2.5999999" y="0" width="10.8" height="6.87272727" rx="0.44478507"></rect>
            <polygon id="Flap" fill="#D8D8D8" sketch:type="MSShapeGroup" transform="translate(8.000000, 2.600000) scale(1, -1) translate(-8.000000, -2.600000) " points="7.99999989 0.599999905 12.5 4.5999998 11.5625 4.5999998 7.99999989 2.41818168 4.43749976 4.5999998 3.5 4.5999999 "></polygon>
        </g>
    </g>
</svg>