<svg style="width:1em; height:1em; vertical-align:middle;" viewBox="0 0 16 16" version="1.1" xmlns="http://www.w3.org/2000/svg">
	<g fill="currentColor" fill-rule="evenodd">
		<path d="M14.1,5.63571636 C14.9517714,6.33967604 15.450459,7.19287046 15.450459,8.11238878 C15.450459,9.00675525 14.9786798,9.83837654 14.1691007,10.5309611 L15.9373937,14.0087185 L12.3204301,12.0078104 C11.9296094,13.5858368 9.54844584,14.7997638 6.66936474,14.7997638 C5.53232152,14.7997638 4.47293941,14.6104254 3.58314938,14.2840966 L3.58314938,14.2840966 L0.600000024,15.934378 L1.91489821,13.3483263 C1.31289726,12.8333222 0.962083376,12.2149306 0.962083376,11.549882 C0.962083376,11.165606 1.07921023,10.7969075 1.29424428,10.4547307 L1.29424428,10.4547307 C0.538036753,9.77771086 0.100000001,8.97417858 0.100000001,8.11238878 C0.100000001,7.04123575 0.776722924,6.06008476 1.89999998,5.30000019 L1.89999998,7.0658888 C1.89999998,7.30870143 2.09163284,7.50553995 2.34867325,7.50553995 L13.6513267,7.50553995 C13.8991221,7.50553995 14.1,7.31362877 14.1,7.0658888 L14.1,5.63571636 L14.1,5.63571636 Z M1.91455086,10.9345943 C1.80464172,11.1556337 1.74596704,11.3882813 1.74596704,11.6284523 C1.74596704,12.1628789 2.03649339,12.660053 2.53556999,13.0749705 L1.89355472,14.5590821 L3.60073421,13.7061116 L3.60073421,13.7061116 C4.4110062,14.0513606 5.42865146,14.2569046 6.53374306,14.2569046 C8.94591699,14.2569046 10.9414496,13.2775827 11.2731076,12.0036603 C10.2241563,12.3100096 9.03514487,12.482874 7.77522952,12.482874 C5.42553187,12.482874 3.3224447,11.8816356 1.91455086,10.9345943 L1.91455086,10.9345943 Z M3.03674893,0 C2.79553911,0 2.5999999,0.198275445 2.5999999,0.450938832 L2.5999999,6.42178844 C2.5999999,6.67083508 2.80610042,6.87272727 3.03674893,6.87272727 L12.9632509,6.87272727 C13.2044607,6.87272727 13.3999999,6.67445183 13.3999999,6.42178844 L13.3999999,0.450938832 C13.3999999,0.201892192 13.1938994,0 12.9632509,0 L3.03674893,0 Z M7.99999989,4.5999999 L12.5,0.600000013 L11.5625,0.600000013 L7.99999989,2.78181813 L4.43749976,0.600000013 L3.5,0.599999905 L7.99999989,4.5999999 Z"></path>
	</g>
</svg>